<svg xmlns="http://www.w3.org/2000/svg" width="24" height="24" viewBox="0 0 24 24" fill="none" stroke="#EF4444" stroke-width="2" stroke-linecap="round" stroke-linejoin="round" class="lucide lucide-fuel-icon lucide-fuel">
  <circle cx="12" cy="12" r="11" fill="white"/>
  <line x1="6" x2="14" y1="17" y2="17"/>
  <line x1="7" x2="13" y1="10" y2="10"/>
  <path d="M13 17V8a1.5 1.5 0 0 0-1.5-1.5H8.5A1.5 1.5 0 0 0 7 8v9"/>
  <path d="M13 11h1a1 1 0 0 1 1 1v1a1 1 0 0 0 1 1a1 1 0 0 0 1-1V9.83a1 1 0 0 0-.29-.71L15 6"/>
</svg>