<?xml version="1.0" encoding="UTF-8"?>
<svg width="40" height="40" viewBox="0 0 40 40" fill="none" xmlns="http://www.w3.org/2000/svg">
  <!-- Фон метки -->
  <circle cx="20" cy="20" r="18" fill="#2563EB"/>
  <circle cx="20" cy="20" r="16" fill="white"/>
  
  <!-- Иконка АЗС -->
  <path d="M25 12H15C13.8954 12 13 12.8954 13 14V26C13 27.1046 13.8954 28 15 28H25C26.1046 28 27 27.1046 27 26V14C27 12.8954 26.1046 12 25 12Z" fill="#2563EB"/>
  <path d="M17 16H23V24H17V16Z" fill="white"/>
  <path d="M19 18H21V22H19V18Z" fill="#2563EB"/>
  <path d="M15 20H13V22H15V20Z" fill="#2563EB"/>
  <path d="M27 20H25V22H27V20Z" fill="#2563EB"/>
</svg> 